Coordinates
version=1
nRows=19
nColumns=24
inDegrees=yes

Units are S.I. units (second, meters, Newtons, ...)
Angles are in degrees.

endheader
time	pelvis_tilt	pelvis_list	pelvis_rotation	pelvis_tx	pelvis_ty	pelvis_tz	hip_flexion_r	hip_adduction_r	hip_rotation_r	knee_angle_r	ankle_angle_r	subtalar_angle_r	mtp_angle_r	hip_flexion_l	hip_adduction_l	hip_rotation_l	knee_angle_l	ankle_angle_l	subtalar_angle_l	mtp_angle_l	lumbar_extension	lumbar_bending	lumbar_rotation
      0.93316667	     -0.98069383	     -6.57428853	     -4.85897133	     -0.19825895	      1.00364072	      0.33701193	     -8.90612769	      7.88534773	     -2.82190259	    -11.28206013	      6.66886750	     -7.38061153	     -1.53524624	     25.07756737	     -8.14224422	     -8.73020542	     -7.80999096	      1.27434743	     -8.88357131	     -8.81282356	     -9.79814518	      8.17339691	      8.23533851
      0.93733333	     -0.91856692	     -6.57398135	     -4.95313262	     -0.19246240	      1.00303218	      0.33705584	     -9.11781260	      7.78090854	     -2.84901375	    -11.73007180	      6.81624880	     -7.06970305	     -1.43240135	     24.79333259	     -8.12824391	     -8.82334914	     -7.52847473	      1.16792716	     -8.99305187	     -8.79979501	     -9.83453845	      8.09146558	      8.28918738
      0.94150000	     -0.81429630	     -6.54289029	     -5.04136492	     -0.18664013	      1.00253126	      0.33709898	     -9.35616251	      7.63558998	     -2.90106682	    -12.20566053	      6.92883715	     -6.75023361	     -1.29088297	     24.46501388	     -8.08078272	     -8.92739257	     -7.32231503	      1.02951028	     -9.13110036	     -8.77675666	     -9.91761808	      7.96174181	      8.36657028
      0.94566667	     -0.75751539	     -6.53711079	     -5.14425535	     -0.18085828	      1.00198400	      0.33718397	     -9.51903108	      7.52336861	     -2.90665921	    -12.72947360	      7.04599419	     -6.47984707	     -1.18739343	     24.21287335	     -8.07545379	     -9.03437985	     -7.23478841	      0.89387192	     -9.25472799	     -8.75826592	     -9.94921342	      7.88195698	      8.38643184
      0.94983333	     -0.59413873	     -6.44694815	     -5.21504687	     -0.17495777	      1.00167148	      0.33721820	     -9.78341953	      7.30349478	     -3.00719291	    -13.25968669	      7.07126184	     -6.15604631	     -0.94073486	     23.82271061	     -7.96015663	     -9.13753201	     -7.16212146	      0.70489701	     -9.45339113	     -8.70196731	    -10.08724035	      7.65859847	      8.53038028
      0.95400000	     -0.50481782	     -6.36632770	     -5.31985665	     -0.16909982	      1.00127419	      0.33734836	     -9.93022938	      7.10108296	     -3.04682143	    -13.86554968	      7.10834068	     -5.86612370	     -0.72108487	     23.53431280	     -7.88291620	     -9.26579271	     -7.19864026	      0.51584201	     -9.61758731	     -8.64695901	    -10.14263903	      7.45463226	      8.56014272
      0.95816667	     -0.44749157	     -6.31319572	     -5.43073041	     -0.16332402	      1.00085649	      0.33751019	    -10.00929564	      6.93476635	     -3.04201241	    -14.53097236	      7.13390210	     -5.60743180	     -0.58521102	     23.30725421	     -7.84416144	     -9.37077006	     -7.33008877	      0.31421313	     -9.78596606	     -8.61216112	    -10.18185848	      7.28978541	      8.55073533
      0.96233333	     -0.22382256	     -6.18129691	     -5.46452856	     -0.15740818	      1.00075935	      0.33746606	    -10.25900360	      6.65603644	     -3.19523208	    -15.18478102	      7.06579654	     -5.29056139	     -0.13802260	     22.87618592	     -7.66825237	     -9.42640880	     -7.43547295	      0.03444200	    -10.08823801	     -8.47982312	    -10.37545175	      7.02003002	      8.71376980
      0.96650000	     -0.20599831	     -6.07898663	     -5.57733866	     -0.15156390	      1.00038203	      0.33767819	    -10.23393253	      6.44026778	     -3.20215979	    -15.95073640	      6.98073047	     -5.08993911	      0.02167329	     22.70834367	     -7.59262765	     -9.57274630	     -7.68660719	     -0.20396605	    -10.23556760	     -8.43372764	    -10.34638857	      6.78631330	      8.62778843
      0.97066667	     -0.01882750	     -5.93322545	     -5.60164411	     -0.14566444	      1.00030096	      0.33762731	    -10.36999778	      6.14576890	     -3.38153644	    -16.71954451	      6.77945030	     -4.88039164	      6.68865262	     22.34884937	     -7.40807686	     -9.62634087	     -7.91172323	     -0.54598046	    -10.56900270	     -6.27423466	    -10.49426420	      6.50782518	      8.66877131
      0.97483333	      0.03513740	     -5.80242424	     -5.67711689	     -0.13982290	      1.00006587	      0.33774397	    -10.30913487	      5.88988568	     -3.45174186	    -17.60272183	      6.60594649	     -4.68030366	      6.71549732	     22.15683207	     -7.28396958	     -9.72870174	     -8.22808751	     -0.83359306	    -10.77754941	     -6.26170219	    -10.49936770	      6.24541292	      8.65537047
      0.97900000	      0.11191934	     -5.64895202	     -5.72092272	     -0.13397253	      0.99990648	      0.33781703	    -10.24155539	      5.60963693	     -3.55541544	    -18.52556005	      6.36427098	     -4.48152023	      6.76634241	     21.95650756	     -7.12407306	     -9.80965126	     -8.58631345	     -1.14642330	    -11.03902149	     -6.24374700	    -10.52648850	      5.93882367	      8.64800182
      0.98316667	      0.27625728	     -5.47956619	     -5.66185711	     -0.12812976	      0.99989989	      0.33757368	    -10.22958162	      5.29342296	     -3.81797235	    -19.50154272	      6.08430790	     -4.22995042	      7.07406057	     21.66750363	     -6.87958464	     -9.72636697	     -8.91735187	     -1.54135247	    -11.44798784	     -6.13791367	    -10.65159056	      5.64863402	      8.61928079
      0.98733333	      0.32773729	     -5.31880401	     -5.70751340	     -0.12232976	      0.99979059	      0.33768261	    -10.04045271	      5.00913172	     -3.90412450	    -20.57549090	      5.71417869	     -4.11797426	      7.16206077	     21.51890787	     -6.72664985	     -9.82653714	     -9.35574564	     -1.80084613	    -11.65016106	     -6.11398271	    -10.65380556	      5.33457956	      8.54574564
      0.99150000	      0.41269302	     -5.14270394	     -5.68301963	     -0.11659938	      0.99974104	      0.33753268	     -9.82522167	      4.68992620	     -4.11590045	    -21.75109812	      5.38335994	     -3.90906271	      7.40675980	     21.34608444	     -6.50743879	     -9.79464662	     -9.77358440	     -2.19557180	    -12.03982754	     -6.05326185	    -10.70349687	      5.03191720	      8.52439773
      0.99566667	      0.43293036	     -4.97494279	     -5.52986281	     -0.11080741	      0.99956732	      0.33706980	     -9.51335226	      4.38431753	     -4.50293279	    -22.95443968	      4.84395131	     -3.74846207	     12.56300754	     21.29370635	     -6.24806462	     -9.61327042	    -10.26298439	     -2.48020949	    -12.38430588	     -4.87541882	    -10.65442400	      4.78423292	      8.27362435
      0.99983333	      0.53759153	     -4.77519490	     -5.51517498	     -0.10505296	      0.99967256	      0.33705550	     -9.24285584	      4.05178555	     -4.64991399	    -24.23011388	      4.25097904	     -3.81136678	     12.59269247	     21.09722065	     -6.02826959	     -9.64765719	    -10.71660288	     -2.71976468	    -12.57917134	     -4.86924058	    -10.72022663	      4.42003017	      8.21161480
      1.00400000	      0.61079084	     -4.56057982	     -5.45381835	     -0.09937181	      0.99971109	      0.33682154	     -8.86414844	      3.68189915	     -4.90939693	    -25.63590594	      3.70867752	     -3.70518188	     12.70026943	     20.95519510	     -5.76144663	     -9.60413823	    -11.17278083	     -3.07204752	    -12.94638276	     -4.85532520	    -10.75575168	      4.08550152	      8.11850105
      1.00816667	      0.60742253	     -4.36284448	     -5.20678732	     -0.09368376	      0.99957317	      0.33611367	     -8.37621890	      3.33464471	     -5.38697086	    -27.08148323	      3.03685398	     -3.59553209	     13.10174244	     20.95702573	     -5.42775544	     -9.27542053	    -11.69657451	     -3.28897664	    -13.35851837	     -4.81400291	    -10.69398973	      3.81312719	      7.86202707
